<mxfile host="app.diagrams.net" modified="2021-01-14T01:10:48.877Z" agent="5.0 (Windows NT 10.0; Win64; x64) AppleWebKit/537.36 (KHTML, like Gecko) Chrome/71.0.3578.98 Safari/537.36" etag="QimdMd_MxUFDDDK6IvCs" version="14.1.9" type="github">
  <diagram id="fWQ41ixsn_-MHg3DVFzX" name="Page-1">
    <mxGraphModel dx="782" dy="389" grid="1" gridSize="10" guides="1" tooltips="1" connect="1" arrows="1" fold="1" page="1" pageScale="1" pageWidth="827" pageHeight="1169" math="0" shadow="0">
      <root>
        <mxCell id="0" />
        <mxCell id="1" parent="0" />
        <mxCell id="0eDmDIjOWBHYxuThT7Zu-2" value="" style="whiteSpace=wrap;html=1;fillColor=#A2C4EB;" parent="1" vertex="1">
          <mxGeometry x="90" y="70" width="630" height="510" as="geometry" />
        </mxCell>
        <mxCell id="8kM-RfW2gDSPi0M0tcjr-1" value="区块链应用平台&lt;br&gt;" style="text;html=1;resizable=0;autosize=1;align=center;verticalAlign=middle;points=[];fillColor=none;strokeColor=none;rounded=0;fontColor=#2A73BD;" parent="1" vertex="1">
          <mxGeometry x="90" y="80" width="100" height="20" as="geometry" />
        </mxCell>
        <mxCell id="qg2TMFH575JFQtMO2cEW-23" style="edgeStyle=orthogonalEdgeStyle;rounded=0;orthogonalLoop=1;jettySize=auto;html=1;exitX=0.5;exitY=1;exitDx=0;exitDy=0;entryX=0.5;entryY=0;entryDx=0;entryDy=0;" parent="1" source="8kM-RfW2gDSPi0M0tcjr-2" target="8kM-RfW2gDSPi0M0tcjr-5" edge="1">
          <mxGeometry relative="1" as="geometry" />
        </mxCell>
        <mxCell id="8kM-RfW2gDSPi0M0tcjr-2" value="私募应用" style="rounded=1;whiteSpace=wrap;html=1;fillColor=#1ba1e2;fontColor=#ffffff;strokeColor=#006EAF;" parent="1" vertex="1">
          <mxGeometry x="190" y="120" width="120" height="60" as="geometry" />
        </mxCell>
        <mxCell id="qg2TMFH575JFQtMO2cEW-24" style="edgeStyle=orthogonalEdgeStyle;rounded=0;orthogonalLoop=1;jettySize=auto;html=1;exitX=0.5;exitY=1;exitDx=0;exitDy=0;" parent="1" source="8kM-RfW2gDSPi0M0tcjr-3" target="qzB3rU1nFHjKvM0NbiP9-9" edge="1">
          <mxGeometry relative="1" as="geometry" />
        </mxCell>
        <mxCell id="8kM-RfW2gDSPi0M0tcjr-3" value="中债登应用" style="rounded=1;whiteSpace=wrap;html=1;fillColor=#1ba1e2;fontColor=#ffffff;strokeColor=#006EAF;" parent="1" vertex="1">
          <mxGeometry x="480" y="120" width="120" height="60" as="geometry" />
        </mxCell>
        <mxCell id="8kM-RfW2gDSPi0M0tcjr-5" value="" style="rounded=1;arcSize=10;dashed=1;fillColor=none;gradientColor=none;dashPattern=8 4;strokeWidth=2;fontColor=#2A73BD;strokeColor=#009900;" parent="1" vertex="1">
          <mxGeometry x="155" y="230" width="190" height="90" as="geometry" />
        </mxCell>
        <mxCell id="qzB3rU1nFHjKvM0NbiP9-1" value="fabric网络" style="text;html=1;resizable=0;autosize=1;align=center;verticalAlign=middle;points=[];fillColor=none;strokeColor=none;rounded=0;" parent="1" vertex="1">
          <mxGeometry x="215" y="230" width="70" height="20" as="geometry" />
        </mxCell>
        <mxCell id="UwF97AdqwWx9CuCHVwBy-2" style="edgeStyle=orthogonalEdgeStyle;rounded=0;orthogonalLoop=1;jettySize=auto;html=1;exitX=1;exitY=0.5;exitDx=0;exitDy=0;exitPerimeter=0;entryX=0;entryY=0.5;entryDx=0;entryDy=0;entryPerimeter=0;shape=link;" edge="1" parent="1" source="qzB3rU1nFHjKvM0NbiP9-2" target="qzB3rU1nFHjKvM0NbiP9-3">
          <mxGeometry relative="1" as="geometry" />
        </mxCell>
        <mxCell id="qzB3rU1nFHjKvM0NbiP9-2" value="" style="strokeWidth=2;html=1;shape=mxgraph.flowchart.start_2;whiteSpace=wrap;fillColor=#60a917;fontColor=#ffffff;strokeColor=#2D7600;" parent="1" vertex="1">
          <mxGeometry x="195" y="265" width="20" height="20" as="geometry" />
        </mxCell>
        <mxCell id="UwF97AdqwWx9CuCHVwBy-3" style="edgeStyle=orthogonalEdgeStyle;shape=link;rounded=0;orthogonalLoop=1;jettySize=auto;html=1;exitX=1;exitY=0.5;exitDx=0;exitDy=0;exitPerimeter=0;" edge="1" parent="1" source="qzB3rU1nFHjKvM0NbiP9-3" target="qzB3rU1nFHjKvM0NbiP9-4">
          <mxGeometry relative="1" as="geometry" />
        </mxCell>
        <mxCell id="qzB3rU1nFHjKvM0NbiP9-3" value="" style="strokeWidth=2;html=1;shape=mxgraph.flowchart.start_2;whiteSpace=wrap;fillColor=#60a917;fontColor=#ffffff;strokeColor=#2D7600;" parent="1" vertex="1">
          <mxGeometry x="240" y="265" width="20" height="20" as="geometry" />
        </mxCell>
        <mxCell id="qzB3rU1nFHjKvM0NbiP9-4" value="" style="strokeWidth=2;html=1;shape=mxgraph.flowchart.start_2;whiteSpace=wrap;fillColor=#60a917;fontColor=#ffffff;strokeColor=#2D7600;" parent="1" vertex="1">
          <mxGeometry x="285" y="265" width="20" height="20" as="geometry" />
        </mxCell>
        <mxCell id="qzB3rU1nFHjKvM0NbiP9-5" value="order" style="text;html=1;resizable=0;autosize=1;align=center;verticalAlign=middle;points=[];fillColor=none;strokeColor=none;rounded=0;fontColor=#000000;" parent="1" vertex="1">
          <mxGeometry x="185" y="290" width="40" height="20" as="geometry" />
        </mxCell>
        <mxCell id="qzB3rU1nFHjKvM0NbiP9-6" value="order" style="text;html=1;resizable=0;autosize=1;align=center;verticalAlign=middle;points=[];fillColor=none;strokeColor=none;rounded=0;fontColor=#000000;" parent="1" vertex="1">
          <mxGeometry x="228" y="290" width="40" height="20" as="geometry" />
        </mxCell>
        <mxCell id="qzB3rU1nFHjKvM0NbiP9-7" value="order" style="text;html=1;resizable=0;autosize=1;align=center;verticalAlign=middle;points=[];fillColor=none;strokeColor=none;rounded=0;fontColor=#000000;" parent="1" vertex="1">
          <mxGeometry x="273" y="290" width="40" height="20" as="geometry" />
        </mxCell>
        <mxCell id="qzB3rU1nFHjKvM0NbiP9-8" value="" style="rounded=1;arcSize=10;dashed=1;fillColor=none;gradientColor=none;dashPattern=8 4;strokeWidth=2;fontColor=#2A73BD;strokeColor=#009900;" parent="1" vertex="1">
          <mxGeometry x="445" y="230" width="190" height="90" as="geometry" />
        </mxCell>
        <mxCell id="qzB3rU1nFHjKvM0NbiP9-9" value="fabric网络" style="text;html=1;resizable=0;autosize=1;align=center;verticalAlign=middle;points=[];fillColor=none;strokeColor=none;rounded=0;" parent="1" vertex="1">
          <mxGeometry x="505" y="230" width="70" height="20" as="geometry" />
        </mxCell>
        <mxCell id="UwF97AdqwWx9CuCHVwBy-4" style="edgeStyle=orthogonalEdgeStyle;shape=link;rounded=0;orthogonalLoop=1;jettySize=auto;html=1;exitX=1;exitY=0.5;exitDx=0;exitDy=0;exitPerimeter=0;entryX=0;entryY=0.5;entryDx=0;entryDy=0;entryPerimeter=0;" edge="1" parent="1" source="qzB3rU1nFHjKvM0NbiP9-10" target="qzB3rU1nFHjKvM0NbiP9-11">
          <mxGeometry relative="1" as="geometry" />
        </mxCell>
        <mxCell id="qzB3rU1nFHjKvM0NbiP9-10" value="" style="strokeWidth=2;html=1;shape=mxgraph.flowchart.start_2;whiteSpace=wrap;fillColor=#60a917;fontColor=#ffffff;strokeColor=#2D7600;" parent="1" vertex="1">
          <mxGeometry x="485" y="265" width="20" height="20" as="geometry" />
        </mxCell>
        <mxCell id="UwF97AdqwWx9CuCHVwBy-5" style="edgeStyle=orthogonalEdgeStyle;shape=link;rounded=0;orthogonalLoop=1;jettySize=auto;html=1;exitX=1;exitY=0.5;exitDx=0;exitDy=0;exitPerimeter=0;entryX=0;entryY=0.5;entryDx=0;entryDy=0;entryPerimeter=0;" edge="1" parent="1" source="qzB3rU1nFHjKvM0NbiP9-11" target="qzB3rU1nFHjKvM0NbiP9-12">
          <mxGeometry relative="1" as="geometry" />
        </mxCell>
        <mxCell id="qzB3rU1nFHjKvM0NbiP9-11" value="" style="strokeWidth=2;html=1;shape=mxgraph.flowchart.start_2;whiteSpace=wrap;fillColor=#60a917;fontColor=#ffffff;strokeColor=#2D7600;" parent="1" vertex="1">
          <mxGeometry x="530" y="265" width="20" height="20" as="geometry" />
        </mxCell>
        <mxCell id="qzB3rU1nFHjKvM0NbiP9-12" value="" style="strokeWidth=2;html=1;shape=mxgraph.flowchart.start_2;whiteSpace=wrap;fillColor=#60a917;fontColor=#ffffff;strokeColor=#2D7600;" parent="1" vertex="1">
          <mxGeometry x="575" y="265" width="20" height="20" as="geometry" />
        </mxCell>
        <mxCell id="qzB3rU1nFHjKvM0NbiP9-13" value="order" style="text;html=1;resizable=0;autosize=1;align=center;verticalAlign=middle;points=[];fillColor=none;strokeColor=none;rounded=0;fontColor=#000000;" parent="1" vertex="1">
          <mxGeometry x="475" y="290" width="40" height="20" as="geometry" />
        </mxCell>
        <mxCell id="qzB3rU1nFHjKvM0NbiP9-14" value="order" style="text;html=1;resizable=0;autosize=1;align=center;verticalAlign=middle;points=[];fillColor=none;strokeColor=none;rounded=0;fontColor=#000000;" parent="1" vertex="1">
          <mxGeometry x="518" y="290" width="40" height="20" as="geometry" />
        </mxCell>
        <mxCell id="qzB3rU1nFHjKvM0NbiP9-15" value="order" style="text;html=1;resizable=0;autosize=1;align=center;verticalAlign=middle;points=[];fillColor=none;strokeColor=none;rounded=0;fontColor=#000000;" parent="1" vertex="1">
          <mxGeometry x="563" y="290" width="40" height="20" as="geometry" />
        </mxCell>
        <mxCell id="qg2TMFH575JFQtMO2cEW-1" value="" style="html=1;shadow=0;dashed=0;align=center;verticalAlign=middle;shape=mxgraph.arrows2.arrow;dy=0;dx=10;notch=10;fillColor=#1ba1e2;strokeColor=#006EAF;fontColor=#ffffff;" parent="1" vertex="1">
          <mxGeometry x="117.5" y="340" width="575" height="20" as="geometry" />
        </mxCell>
        <mxCell id="qg2TMFH575JFQtMO2cEW-2" value="浦发" style="text;html=1;resizable=0;autosize=1;align=center;verticalAlign=middle;points=[];fillColor=none;strokeColor=none;rounded=0;" parent="1" vertex="1">
          <mxGeometry x="305" y="245" width="40" height="20" as="geometry" />
        </mxCell>
        <mxCell id="qg2TMFH575JFQtMO2cEW-3" value="浦发" style="text;html=1;resizable=0;autosize=1;align=center;verticalAlign=middle;points=[];fillColor=none;strokeColor=none;rounded=0;" parent="1" vertex="1">
          <mxGeometry x="600" y="240" width="40" height="20" as="geometry" />
        </mxCell>
        <mxCell id="qg2TMFH575JFQtMO2cEW-5" value="" style="rounded=1;arcSize=10;dashed=1;fillColor=none;gradientColor=none;dashPattern=8 4;strokeWidth=2;fontColor=#2A73BD;strokeColor=#009900;" parent="1" vertex="1">
          <mxGeometry x="450" y="410" width="190" height="90" as="geometry" />
        </mxCell>
        <mxCell id="qg2TMFH575JFQtMO2cEW-6" value="fabric网络" style="text;html=1;resizable=0;autosize=1;align=center;verticalAlign=middle;points=[];fillColor=none;strokeColor=none;rounded=0;" parent="1" vertex="1">
          <mxGeometry x="510" y="410" width="70" height="20" as="geometry" />
        </mxCell>
        <mxCell id="qg2TMFH575JFQtMO2cEW-7" value="" style="strokeWidth=2;html=1;shape=mxgraph.flowchart.start_2;whiteSpace=wrap;fillColor=#60a917;fontColor=#ffffff;strokeColor=#2D7600;" parent="1" vertex="1">
          <mxGeometry x="490" y="445" width="20" height="20" as="geometry" />
        </mxCell>
        <mxCell id="qg2TMFH575JFQtMO2cEW-8" value="" style="strokeWidth=2;html=1;shape=mxgraph.flowchart.start_2;whiteSpace=wrap;fillColor=#60a917;fontColor=#ffffff;strokeColor=#2D7600;" parent="1" vertex="1">
          <mxGeometry x="535" y="445" width="20" height="20" as="geometry" />
        </mxCell>
        <mxCell id="qg2TMFH575JFQtMO2cEW-9" value="" style="strokeWidth=2;html=1;shape=mxgraph.flowchart.start_2;whiteSpace=wrap;fillColor=#60a917;fontColor=#ffffff;strokeColor=#2D7600;" parent="1" vertex="1">
          <mxGeometry x="580" y="445" width="20" height="20" as="geometry" />
        </mxCell>
        <mxCell id="qg2TMFH575JFQtMO2cEW-10" value="peer" style="text;html=1;resizable=0;autosize=1;align=center;verticalAlign=middle;points=[];fillColor=none;strokeColor=none;rounded=0;fontColor=#000000;" parent="1" vertex="1">
          <mxGeometry x="480" y="470" width="40" height="20" as="geometry" />
        </mxCell>
        <mxCell id="qg2TMFH575JFQtMO2cEW-11" value="peer" style="text;html=1;resizable=0;autosize=1;align=center;verticalAlign=middle;points=[];fillColor=none;strokeColor=none;rounded=0;fontColor=#000000;" parent="1" vertex="1">
          <mxGeometry x="523" y="470" width="40" height="20" as="geometry" />
        </mxCell>
        <mxCell id="qg2TMFH575JFQtMO2cEW-12" value="peer" style="text;html=1;resizable=0;autosize=1;align=center;verticalAlign=middle;points=[];fillColor=none;strokeColor=none;rounded=0;fontColor=#000000;" parent="1" vertex="1">
          <mxGeometry x="568" y="470" width="40" height="20" as="geometry" />
        </mxCell>
        <mxCell id="qg2TMFH575JFQtMO2cEW-13" value="中债" style="text;html=1;resizable=0;autosize=1;align=center;verticalAlign=middle;points=[];fillColor=none;strokeColor=none;rounded=0;" parent="1" vertex="1">
          <mxGeometry x="600" y="425" width="40" height="20" as="geometry" />
        </mxCell>
        <mxCell id="qg2TMFH575JFQtMO2cEW-14" value="" style="rounded=1;arcSize=10;dashed=1;fillColor=none;gradientColor=none;dashPattern=8 4;strokeWidth=2;fontColor=#2A73BD;strokeColor=#009900;" parent="1" vertex="1">
          <mxGeometry x="155" y="410" width="190" height="90" as="geometry" />
        </mxCell>
        <mxCell id="qg2TMFH575JFQtMO2cEW-15" value="fabric网络" style="text;html=1;resizable=0;autosize=1;align=center;verticalAlign=middle;points=[];fillColor=none;strokeColor=none;rounded=0;" parent="1" vertex="1">
          <mxGeometry x="216" y="410" width="70" height="20" as="geometry" />
        </mxCell>
        <mxCell id="qg2TMFH575JFQtMO2cEW-16" value="" style="strokeWidth=2;html=1;shape=mxgraph.flowchart.start_2;whiteSpace=wrap;fillColor=#60a917;fontColor=#ffffff;strokeColor=#2D7600;" parent="1" vertex="1">
          <mxGeometry x="195" y="445" width="20" height="20" as="geometry" />
        </mxCell>
        <mxCell id="qg2TMFH575JFQtMO2cEW-17" value="" style="strokeWidth=2;html=1;shape=mxgraph.flowchart.start_2;whiteSpace=wrap;fillColor=#60a917;fontColor=#ffffff;strokeColor=#2D7600;" parent="1" vertex="1">
          <mxGeometry x="238" y="445" width="20" height="20" as="geometry" />
        </mxCell>
        <mxCell id="qg2TMFH575JFQtMO2cEW-18" value="" style="strokeWidth=2;html=1;shape=mxgraph.flowchart.start_2;whiteSpace=wrap;fillColor=#60a917;fontColor=#ffffff;strokeColor=#2D7600;" parent="1" vertex="1">
          <mxGeometry x="283" y="445" width="20" height="20" as="geometry" />
        </mxCell>
        <mxCell id="qg2TMFH575JFQtMO2cEW-19" value="peer" style="text;html=1;resizable=0;autosize=1;align=center;verticalAlign=middle;points=[];fillColor=none;strokeColor=none;rounded=0;fontColor=#000000;" parent="1" vertex="1">
          <mxGeometry x="185" y="470" width="40" height="20" as="geometry" />
        </mxCell>
        <mxCell id="qg2TMFH575JFQtMO2cEW-20" value="peer" style="text;html=1;resizable=0;autosize=1;align=center;verticalAlign=middle;points=[];fillColor=none;strokeColor=none;rounded=0;fontColor=#000000;" parent="1" vertex="1">
          <mxGeometry x="230" y="470" width="40" height="20" as="geometry" />
        </mxCell>
        <mxCell id="qg2TMFH575JFQtMO2cEW-21" value="peer" style="text;html=1;resizable=0;autosize=1;align=center;verticalAlign=middle;points=[];fillColor=none;strokeColor=none;rounded=0;fontColor=#000000;" parent="1" vertex="1">
          <mxGeometry x="273" y="470" width="40" height="20" as="geometry" />
        </mxCell>
        <mxCell id="qg2TMFH575JFQtMO2cEW-22" value="上信" style="text;html=1;resizable=0;autosize=1;align=center;verticalAlign=middle;points=[];fillColor=none;strokeColor=none;rounded=0;" parent="1" vertex="1">
          <mxGeometry x="304" y="425" width="40" height="20" as="geometry" />
        </mxCell>
        <mxCell id="qg2TMFH575JFQtMO2cEW-27" value="" style="whiteSpace=wrap;html=1;fillColor=#A2C4EB;" parent="1" vertex="1">
          <mxGeometry x="80" y="630" width="630" height="510" as="geometry" />
        </mxCell>
        <mxCell id="qg2TMFH575JFQtMO2cEW-28" value="区块链应用平台&lt;br&gt;" style="text;html=1;resizable=0;autosize=1;align=center;verticalAlign=middle;points=[];fillColor=none;strokeColor=none;rounded=0;fontColor=#2A73BD;" parent="1" vertex="1">
          <mxGeometry x="80" y="640" width="100" height="20" as="geometry" />
        </mxCell>
        <mxCell id="qg2TMFH575JFQtMO2cEW-29" style="edgeStyle=orthogonalEdgeStyle;rounded=0;orthogonalLoop=1;jettySize=auto;html=1;exitX=0.5;exitY=1;exitDx=0;exitDy=0;entryX=0.5;entryY=0;entryDx=0;entryDy=0;" parent="1" source="qg2TMFH575JFQtMO2cEW-30" target="qg2TMFH575JFQtMO2cEW-33" edge="1">
          <mxGeometry relative="1" as="geometry" />
        </mxCell>
        <mxCell id="qg2TMFH575JFQtMO2cEW-30" value="私募应用" style="rounded=1;whiteSpace=wrap;html=1;fillColor=#1ba1e2;fontColor=#ffffff;strokeColor=#006EAF;" parent="1" vertex="1">
          <mxGeometry x="180" y="680" width="120" height="60" as="geometry" />
        </mxCell>
        <mxCell id="qg2TMFH575JFQtMO2cEW-32" value="中债登应用" style="rounded=1;whiteSpace=wrap;html=1;fillColor=#1ba1e2;fontColor=#ffffff;strokeColor=#006EAF;" parent="1" vertex="1">
          <mxGeometry x="470" y="680" width="120" height="60" as="geometry" />
        </mxCell>
        <mxCell id="qg2TMFH575JFQtMO2cEW-33" value="" style="rounded=1;arcSize=10;dashed=1;fillColor=none;gradientColor=none;dashPattern=8 4;strokeWidth=2;fontColor=#2A73BD;strokeColor=#009900;" parent="1" vertex="1">
          <mxGeometry x="145" y="790" width="465" height="80" as="geometry" />
        </mxCell>
        <mxCell id="qg2TMFH575JFQtMO2cEW-34" value="fabric网络" style="text;html=1;resizable=0;autosize=1;align=center;verticalAlign=middle;points=[];fillColor=none;strokeColor=none;rounded=0;" parent="1" vertex="1">
          <mxGeometry x="300" y="790" width="70" height="20" as="geometry" />
        </mxCell>
        <mxCell id="qg2TMFH575JFQtMO2cEW-35" value="" style="strokeWidth=2;html=1;shape=mxgraph.flowchart.start_2;whiteSpace=wrap;fillColor=#60a917;fontColor=#ffffff;strokeColor=#2D7600;" parent="1" vertex="1">
          <mxGeometry x="283" y="825" width="20" height="20" as="geometry" />
        </mxCell>
        <mxCell id="qg2TMFH575JFQtMO2cEW-36" value="" style="strokeWidth=2;html=1;shape=mxgraph.flowchart.start_2;whiteSpace=wrap;fillColor=#60a917;fontColor=#ffffff;strokeColor=#2D7600;" parent="1" vertex="1">
          <mxGeometry x="330" y="825" width="20" height="20" as="geometry" />
        </mxCell>
        <mxCell id="qg2TMFH575JFQtMO2cEW-37" value="" style="strokeWidth=2;html=1;shape=mxgraph.flowchart.start_2;whiteSpace=wrap;fillColor=#60a917;fontColor=#ffffff;strokeColor=#2D7600;" parent="1" vertex="1">
          <mxGeometry x="380" y="825" width="20" height="20" as="geometry" />
        </mxCell>
        <mxCell id="qg2TMFH575JFQtMO2cEW-38" value="order" style="text;html=1;resizable=0;autosize=1;align=center;verticalAlign=middle;points=[];fillColor=none;strokeColor=none;rounded=0;fontColor=#000000;" parent="1" vertex="1">
          <mxGeometry x="270" y="850" width="40" height="20" as="geometry" />
        </mxCell>
        <mxCell id="qg2TMFH575JFQtMO2cEW-39" value="order" style="text;html=1;resizable=0;autosize=1;align=center;verticalAlign=middle;points=[];fillColor=none;strokeColor=none;rounded=0;fontColor=#000000;" parent="1" vertex="1">
          <mxGeometry x="315" y="850" width="40" height="20" as="geometry" />
        </mxCell>
        <mxCell id="qg2TMFH575JFQtMO2cEW-40" value="peer" style="text;html=1;resizable=0;autosize=1;align=center;verticalAlign=middle;points=[];fillColor=none;strokeColor=none;rounded=0;fontColor=#000000;" parent="1" vertex="1">
          <mxGeometry x="360" y="850" width="40" height="20" as="geometry" />
        </mxCell>
        <mxCell id="qg2TMFH575JFQtMO2cEW-49" value="" style="html=1;shadow=0;dashed=0;align=center;verticalAlign=middle;shape=mxgraph.arrows2.arrow;dy=0;dx=10;notch=10;fillColor=#1ba1e2;strokeColor=#006EAF;fontColor=#ffffff;" parent="1" vertex="1">
          <mxGeometry x="107.5" y="900" width="575" height="20" as="geometry" />
        </mxCell>
        <mxCell id="qg2TMFH575JFQtMO2cEW-50" value="浦发" style="text;html=1;resizable=0;autosize=1;align=center;verticalAlign=middle;points=[];fillColor=none;strokeColor=none;rounded=0;" parent="1" vertex="1">
          <mxGeometry x="528" y="805" width="40" height="20" as="geometry" />
        </mxCell>
        <mxCell id="qg2TMFH575JFQtMO2cEW-52" style="edgeStyle=orthogonalEdgeStyle;rounded=0;orthogonalLoop=1;jettySize=auto;html=1;exitX=0.5;exitY=0;exitDx=0;exitDy=0;entryX=0.665;entryY=1.056;entryDx=0;entryDy=0;entryPerimeter=0;" parent="1" source="qg2TMFH575JFQtMO2cEW-53" edge="1">
          <mxGeometry relative="1" as="geometry">
            <mxPoint x="561.3499999999999" y="885.04" as="targetPoint" />
          </mxGeometry>
        </mxCell>
        <mxCell id="qg2TMFH575JFQtMO2cEW-53" value="" style="rounded=1;arcSize=10;dashed=1;fillColor=none;gradientColor=none;dashPattern=8 4;strokeWidth=2;fontColor=#2A73BD;strokeColor=#009900;" parent="1" vertex="1">
          <mxGeometry x="440" y="970" width="190" height="90" as="geometry" />
        </mxCell>
        <mxCell id="qg2TMFH575JFQtMO2cEW-54" value="fabric网络" style="text;html=1;resizable=0;autosize=1;align=center;verticalAlign=middle;points=[];fillColor=none;strokeColor=none;rounded=0;" parent="1" vertex="1">
          <mxGeometry x="500" y="970" width="70" height="20" as="geometry" />
        </mxCell>
        <mxCell id="qg2TMFH575JFQtMO2cEW-55" value="" style="strokeWidth=2;html=1;shape=mxgraph.flowchart.start_2;whiteSpace=wrap;fillColor=#60a917;fontColor=#ffffff;strokeColor=#2D7600;" parent="1" vertex="1">
          <mxGeometry x="480" y="1005" width="20" height="20" as="geometry" />
        </mxCell>
        <mxCell id="qg2TMFH575JFQtMO2cEW-56" value="" style="strokeWidth=2;html=1;shape=mxgraph.flowchart.start_2;whiteSpace=wrap;fillColor=#60a917;fontColor=#ffffff;strokeColor=#2D7600;" parent="1" vertex="1">
          <mxGeometry x="525" y="1005" width="20" height="20" as="geometry" />
        </mxCell>
        <mxCell id="qg2TMFH575JFQtMO2cEW-57" value="" style="strokeWidth=2;html=1;shape=mxgraph.flowchart.start_2;whiteSpace=wrap;fillColor=#60a917;fontColor=#ffffff;strokeColor=#2D7600;" parent="1" vertex="1">
          <mxGeometry x="570" y="1005" width="20" height="20" as="geometry" />
        </mxCell>
        <mxCell id="qg2TMFH575JFQtMO2cEW-58" value="order" style="text;html=1;resizable=0;autosize=1;align=center;verticalAlign=middle;points=[];fillColor=none;strokeColor=none;rounded=0;fontColor=#000000;" parent="1" vertex="1">
          <mxGeometry x="470" y="1030" width="40" height="20" as="geometry" />
        </mxCell>
        <mxCell id="qg2TMFH575JFQtMO2cEW-59" value="order" style="text;html=1;resizable=0;autosize=1;align=center;verticalAlign=middle;points=[];fillColor=none;strokeColor=none;rounded=0;fontColor=#000000;" parent="1" vertex="1">
          <mxGeometry x="513" y="1030" width="40" height="20" as="geometry" />
        </mxCell>
        <mxCell id="qg2TMFH575JFQtMO2cEW-60" value="peer" style="text;html=1;resizable=0;autosize=1;align=center;verticalAlign=middle;points=[];fillColor=none;strokeColor=none;rounded=0;fontColor=#000000;" parent="1" vertex="1">
          <mxGeometry x="558" y="1030" width="40" height="20" as="geometry" />
        </mxCell>
        <mxCell id="qg2TMFH575JFQtMO2cEW-61" value="浦发" style="text;html=1;resizable=0;autosize=1;align=center;verticalAlign=middle;points=[];fillColor=none;strokeColor=none;rounded=0;" parent="1" vertex="1">
          <mxGeometry x="590" y="985" width="40" height="20" as="geometry" />
        </mxCell>
        <mxCell id="qg2TMFH575JFQtMO2cEW-62" style="edgeStyle=orthogonalEdgeStyle;rounded=0;orthogonalLoop=1;jettySize=auto;html=1;exitX=0.5;exitY=0;exitDx=0;exitDy=0;entryX=0.5;entryY=1;entryDx=0;entryDy=0;" parent="1" source="qg2TMFH575JFQtMO2cEW-63" target="qg2TMFH575JFQtMO2cEW-33" edge="1">
          <mxGeometry relative="1" as="geometry" />
        </mxCell>
        <mxCell id="qg2TMFH575JFQtMO2cEW-63" value="" style="rounded=1;arcSize=10;dashed=1;fillColor=none;gradientColor=none;dashPattern=8 4;strokeWidth=2;fontColor=#2A73BD;strokeColor=#009900;" parent="1" vertex="1">
          <mxGeometry x="130" y="970" width="190" height="90" as="geometry" />
        </mxCell>
        <mxCell id="qg2TMFH575JFQtMO2cEW-64" value="fabric网络" style="text;html=1;resizable=0;autosize=1;align=center;verticalAlign=middle;points=[];fillColor=none;strokeColor=none;rounded=0;" parent="1" vertex="1">
          <mxGeometry x="190" y="970" width="70" height="20" as="geometry" />
        </mxCell>
        <mxCell id="qg2TMFH575JFQtMO2cEW-65" value="" style="strokeWidth=2;html=1;shape=mxgraph.flowchart.start_2;whiteSpace=wrap;fillColor=#60a917;fontColor=#ffffff;strokeColor=#2D7600;" parent="1" vertex="1">
          <mxGeometry x="170" y="1005" width="20" height="20" as="geometry" />
        </mxCell>
        <mxCell id="qg2TMFH575JFQtMO2cEW-66" value="" style="strokeWidth=2;html=1;shape=mxgraph.flowchart.start_2;whiteSpace=wrap;fillColor=#60a917;fontColor=#ffffff;strokeColor=#2D7600;" parent="1" vertex="1">
          <mxGeometry x="215" y="1005" width="20" height="20" as="geometry" />
        </mxCell>
        <mxCell id="qg2TMFH575JFQtMO2cEW-67" value="" style="strokeWidth=2;html=1;shape=mxgraph.flowchart.start_2;whiteSpace=wrap;fillColor=#60a917;fontColor=#ffffff;strokeColor=#2D7600;" parent="1" vertex="1">
          <mxGeometry x="260" y="1005" width="20" height="20" as="geometry" />
        </mxCell>
        <mxCell id="qg2TMFH575JFQtMO2cEW-68" value="order" style="text;html=1;resizable=0;autosize=1;align=center;verticalAlign=middle;points=[];fillColor=none;strokeColor=none;rounded=0;fontColor=#000000;" parent="1" vertex="1">
          <mxGeometry x="160" y="1030" width="40" height="20" as="geometry" />
        </mxCell>
        <mxCell id="qg2TMFH575JFQtMO2cEW-69" value="order" style="text;html=1;resizable=0;autosize=1;align=center;verticalAlign=middle;points=[];fillColor=none;strokeColor=none;rounded=0;fontColor=#000000;" parent="1" vertex="1">
          <mxGeometry x="203" y="1030" width="40" height="20" as="geometry" />
        </mxCell>
        <mxCell id="qg2TMFH575JFQtMO2cEW-70" value="peer" style="text;html=1;resizable=0;autosize=1;align=center;verticalAlign=middle;points=[];fillColor=none;strokeColor=none;rounded=0;fontColor=#000000;" parent="1" vertex="1">
          <mxGeometry x="248" y="1030" width="40" height="20" as="geometry" />
        </mxCell>
        <mxCell id="qg2TMFH575JFQtMO2cEW-71" value="浦发" style="text;html=1;resizable=0;autosize=1;align=center;verticalAlign=middle;points=[];fillColor=none;strokeColor=none;rounded=0;" parent="1" vertex="1">
          <mxGeometry x="280" y="985" width="40" height="20" as="geometry" />
        </mxCell>
      </root>
    </mxGraphModel>
  </diagram>
</mxfile>
